<svg width="166" height="27" viewBox="0 0 166 27" fill="none" xmlns="http://www.w3.org/2000/svg">
<g clip-path="url(#clip0_1_19)">
<path d="M0 0C13.8071 0 25 11.1929 25 25H2C0.89543 25 0 24.1046 0 23V0Z" fill="#4A6CF7"/>
<path opacity="0.5" d="M6 25C6 11.1929 17.1929 0 31 0V23C31 24.1046 30.1046 25 29 25H6Z" fill="#4A6CF7"/>
<path d="M42.9975 2.81818H46.3267L52.1151 16.9517H52.3281L58.1165 2.81818H61.4457V21H58.8356V7.84304H58.6669L53.3047 20.9734H51.1385L45.7763 7.83416H45.6076V21H42.9975V2.81818ZM66.8989 26.1136C66.5023 26.1136 66.1413 26.0811 65.8158 26.016C65.4903 25.9568 65.2476 25.8917 65.0878 25.8207L65.727 23.6456C66.2123 23.7758 66.6444 23.832 67.0232 23.8143C67.402 23.7965 67.7364 23.6545 68.0264 23.3881C68.3223 23.1218 68.5827 22.6868 68.8076 22.0831L69.1361 21.1776L64.1468 7.36364H66.9877L70.4411 17.946H70.5832L74.0367 7.36364H76.8865L71.2668 22.82C71.0064 23.5302 70.6749 24.1309 70.2725 24.6222C69.87 25.1193 69.3906 25.4922 68.8343 25.7408C68.2779 25.9893 67.6328 26.1136 66.8989 26.1136ZM89.5107 7.59446C89.416 6.75402 89.0254 6.10298 88.3389 5.64133C87.6523 5.17377 86.7882 4.93999 85.7465 4.93999C85.0008 4.93999 84.3557 5.05836 83.8112 5.2951C83.2667 5.52592 82.8435 5.84553 82.5416 6.25391C82.2457 6.65637 82.0977 7.11506 82.0977 7.62997C82.0977 8.06203 82.1984 8.4349 82.3996 8.74858C82.6067 9.06226 82.876 9.32564 83.2075 9.53871C83.5448 9.74586 83.9059 9.92045 84.2906 10.0625C84.6753 10.1986 85.0452 10.3111 85.4003 10.3999L87.1759 10.8615C87.7559 11.0036 88.3507 11.1959 88.9603 11.4386C89.5699 11.6812 90.1352 12.0008 90.656 12.3974C91.1768 12.7939 91.597 13.2852 91.9166 13.8711C92.2422 14.457 92.4049 15.1584 92.4049 15.9751C92.4049 17.005 92.1386 17.9194 91.6059 18.7184C91.0792 19.5174 90.3127 20.1477 89.3066 20.6094C88.3063 21.071 87.096 21.3018 85.6755 21.3018C84.3142 21.3018 83.1365 21.0858 82.1421 20.6538C81.1478 20.2217 80.3695 19.6091 79.8073 18.8161C79.245 18.017 78.9343 17.0701 78.8751 15.9751H81.6272C81.6805 16.6321 81.8936 17.1796 82.2664 17.6175C82.6452 18.0496 83.1276 18.3722 83.7135 18.5852C84.3054 18.7924 84.9535 18.896 85.6578 18.896C86.4331 18.896 87.1226 18.7746 87.7263 18.532C88.3359 18.2834 88.8153 17.9401 89.1645 17.5021C89.5137 17.0582 89.6883 16.5404 89.6883 15.9485C89.6883 15.4099 89.5344 14.969 89.2267 14.6257C88.9248 14.2824 88.5135 13.9983 87.9926 13.7734C87.4777 13.5485 86.8947 13.3503 86.2437 13.1786L84.0953 12.5927C82.6393 12.1961 81.4852 11.6132 80.6329 10.8438C79.7865 10.0743 79.3634 9.05634 79.3634 7.78977C79.3634 6.74219 79.6475 5.82777 80.2156 5.04652C80.7838 4.26527 81.5532 3.65862 82.5239 3.22656C83.4945 2.78859 84.5895 2.5696 85.8087 2.5696C87.0397 2.5696 88.1258 2.78563 89.0669 3.21768C90.0138 3.64974 90.7596 4.24455 91.3041 5.00213C91.8486 5.75379 92.1327 6.6179 92.1563 7.59446H89.5107ZM101.835 7.36364V9.49432H94.3869V7.36364H101.835ZM96.3844 4.09659H99.0389V16.9961C99.0389 17.511 99.1158 17.8987 99.2697 18.1591C99.4236 18.4136 99.6219 18.5882 99.8645 18.6829C100.113 18.7717 100.382 18.8161 100.672 18.8161C100.885 18.8161 101.072 18.8013 101.232 18.7717C101.392 18.7421 101.516 18.7184 101.605 18.7006L102.084 20.8935C101.93 20.9527 101.711 21.0118 101.427 21.071C101.143 21.1361 100.788 21.1716 100.362 21.1776C99.6633 21.1894 99.0123 21.0651 98.4086 20.8047C97.8049 20.5443 97.3166 20.1418 96.9437 19.5973C96.5708 19.0528 96.3844 18.3692 96.3844 17.5465V4.09659ZM113.41 15.3448V7.36364H116.073V21H113.463V18.6385H113.321C113.007 19.3665 112.504 19.9731 111.812 20.4585C111.125 20.9379 110.27 21.1776 109.246 21.1776C108.37 21.1776 107.595 20.9852 106.92 20.6005C106.251 20.2099 105.725 19.6328 105.34 18.8693C104.961 18.1058 104.772 17.1618 104.772 16.0373V7.36364H107.426V15.7177C107.426 16.6469 107.684 17.3867 108.199 17.9371C108.714 18.4876 109.382 18.7628 110.205 18.7628C110.702 18.7628 111.196 18.6385 111.688 18.3899C112.185 18.1413 112.596 17.7655 112.922 17.2624C113.253 16.7594 113.416 16.1201 113.41 15.3448ZM124.745 21.2663C123.644 21.2663 122.661 20.9852 121.797 20.4229C120.939 19.8548 120.264 19.0469 119.773 17.9993C119.288 16.9458 119.045 15.6822 119.045 14.2085C119.045 12.7347 119.291 11.4741 119.782 10.4265C120.279 9.37891 120.96 8.57694 121.824 8.0206C122.688 7.46425 123.667 7.18608 124.762 7.18608C125.609 7.18608 126.289 7.32812 126.804 7.61222C127.325 7.89039 127.728 8.21591 128.012 8.58878C128.302 8.96165 128.527 9.29013 128.686 9.57422H128.846V2.81818H131.501V21H128.908V18.8782H128.686C128.527 19.1682 128.296 19.4996 127.994 19.8725C127.698 20.2454 127.29 20.5709 126.769 20.8491C126.248 21.1272 125.573 21.2663 124.745 21.2663ZM125.331 19.0025C126.094 19.0025 126.739 18.8013 127.266 18.3988C127.799 17.9904 128.201 17.4252 128.473 16.7031C128.752 15.9811 128.891 15.1406 128.891 14.1818C128.891 13.2348 128.754 12.4062 128.482 11.696C128.21 10.9858 127.81 10.4324 127.284 10.0359C126.757 9.63932 126.106 9.44105 125.331 9.44105C124.532 9.44105 123.866 9.6482 123.333 10.0625C122.8 10.4768 122.398 11.042 122.126 11.7582C121.859 12.4743 121.726 13.2822 121.726 14.1818C121.726 15.0933 121.862 15.913 122.135 16.641C122.407 17.369 122.809 17.946 123.342 18.3722C123.881 18.7924 124.543 19.0025 125.331 19.0025ZM135.289 21V7.36364H137.944V21H135.289ZM136.63 5.25959C136.168 5.25959 135.772 5.1057 135.44 4.79794C135.115 4.48426 134.952 4.11139 134.952 3.67933C134.952 3.24136 135.115 2.86849 135.44 2.56072C135.772 2.24704 136.168 2.0902 136.63 2.0902C137.092 2.0902 137.485 2.24704 137.811 2.56072C138.142 2.86849 138.308 3.24136 138.308 3.67933C138.308 4.11139 138.142 4.48426 137.811 4.79794C137.485 5.1057 137.092 5.25959 136.63 5.25959ZM147.259 21.2752C145.98 21.2752 144.865 20.9822 143.912 20.3963C142.959 19.8104 142.219 18.9906 141.692 17.9371C141.166 16.8836 140.902 15.6526 140.902 14.244C140.902 12.8294 141.166 11.5924 141.692 10.533C142.219 9.4736 142.959 8.65092 143.912 8.06499C144.865 7.47905 145.98 7.18608 147.259 7.18608C148.537 7.18608 149.653 7.47905 150.606 8.06499C151.559 8.65092 152.299 9.4736 152.825 10.533C153.352 11.5924 153.615 12.8294 153.615 14.244C153.615 15.6526 153.352 16.8836 152.825 17.9371C152.299 18.9906 151.559 19.8104 150.606 20.3963C149.653 20.9822 148.537 21.2752 147.259 21.2752ZM147.268 19.0469C148.096 19.0469 148.783 18.8279 149.327 18.3899C149.872 17.9519 150.274 17.369 150.535 16.641C150.801 15.913 150.934 15.111 150.934 14.2351C150.934 13.3651 150.801 12.5661 150.535 11.8381C150.274 11.1042 149.872 10.5153 149.327 10.0714C148.783 9.62749 148.096 9.40554 147.268 9.40554C146.433 9.40554 145.741 9.62749 145.19 10.0714C144.646 10.5153 144.24 11.1042 143.974 11.8381C143.714 12.5661 143.583 13.3651 143.583 14.2351C143.583 15.111 143.714 15.913 143.974 16.641C144.24 17.369 144.646 17.9519 145.19 18.3899C145.741 18.8279 146.433 19.0469 147.268 19.0469Z" fill="white"/>
<path d="M42.9975 2.81818V2.31818H42.4975V2.81818H42.9975ZM46.3267 2.81818L46.7894 2.62868L46.6622 2.31818H46.3267V2.81818ZM52.1151 16.9517L51.6524 17.1412L51.7795 17.4517H52.1151V16.9517ZM52.3281 16.9517V17.4517H52.6637L52.7908 17.1412L52.3281 16.9517ZM58.1165 2.81818V2.31818H57.7809L57.6538 2.62868L58.1165 2.81818ZM61.4457 2.81818H61.9457V2.31818H61.4457V2.81818ZM61.4457 21V21.5H61.9457V21H61.4457ZM58.8356 21H58.3356V21.5H58.8356V21ZM58.8356 7.84304H59.3356V7.34304H58.8356V7.84304ZM58.6669 7.84304V7.34304H58.331L58.204 7.654L58.6669 7.84304ZM53.3047 20.9734V21.4734H53.6406L53.7676 21.1624L53.3047 20.9734ZM51.1385 20.9734L50.6756 21.1623L50.8025 21.4734H51.1385V20.9734ZM45.7763 7.83416L46.2392 7.64523L46.1123 7.33416H45.7763V7.83416ZM45.6076 7.83416V7.33416H45.1076V7.83416H45.6076ZM45.6076 21V21.5H46.1076V21H45.6076ZM42.9975 21H42.4975V21.5H42.9975V21ZM42.9975 3.31818H46.3267V2.31818H42.9975V3.31818ZM45.864 3.00768L51.6524 17.1412L52.5778 16.7622L46.7894 2.62868L45.864 3.00768ZM52.1151 17.4517H52.3281V16.4517H52.1151V17.4517ZM52.7908 17.1412L58.5792 3.00768L57.6538 2.62868L51.8654 16.7622L52.7908 17.1412ZM58.1165 3.31818H61.4457V2.31818H58.1165V3.31818ZM60.9457 2.81818V21H61.9457V2.81818H60.9457ZM61.4457 20.5H58.8356V21.5H61.4457V20.5ZM59.3356 21V7.84304H58.3356V21H59.3356ZM58.8356 7.34304H58.6669V8.34304H58.8356V7.34304ZM58.204 7.654L52.8418 20.7843L53.7676 21.1624L59.1298 8.03208L58.204 7.654ZM53.3047 20.4734H51.1385V21.4734H53.3047V20.4734ZM51.6014 20.7844L46.2392 7.64523L45.3133 8.02309L50.6756 21.1623L51.6014 20.7844ZM45.7763 7.33416H45.6076V8.33416H45.7763V7.33416ZM45.1076 7.83416V21H46.1076V7.83416H45.1076ZM45.6076 20.5H42.9975V21.5H45.6076V20.5ZM43.4975 21V2.81818H42.4975V21H43.4975ZM65.8158 26.016L65.9139 25.5256L65.9052 25.524L65.8158 26.016ZM65.0878 25.8207L64.6081 25.6797L64.4846 26.0998L64.8847 26.2776L65.0878 25.8207ZM65.727 23.6456L65.8566 23.1627L65.385 23.0361L65.2473 23.5046L65.727 23.6456ZM67.0232 23.8143L66.9998 23.3148L66.9998 23.3148L67.0232 23.8143ZM68.0264 23.3881L67.6919 23.0165L67.6882 23.0199L68.0264 23.3881ZM68.8076 22.0831L69.2762 22.2577L69.2776 22.2536L68.8076 22.0831ZM69.1361 21.1776L69.6061 21.3481L69.6678 21.1779L69.6064 21.0077L69.1361 21.1776ZM64.1468 7.36364V6.86364H63.4345L63.6765 7.53349L64.1468 7.36364ZM66.9877 7.36364L67.463 7.20852L67.3504 6.86364H66.9877V7.36364ZM70.4411 17.946L69.9658 18.1011L70.0784 18.446H70.4411V17.946ZM70.5832 17.946V18.446H70.946L71.0585 18.1011L70.5832 17.946ZM74.0367 7.36364V6.86364H73.6739L73.5613 7.20852L74.0367 7.36364ZM76.8865 7.36364L77.3564 7.53449L77.6003 6.86364H76.8865V7.36364ZM71.2668 22.82L71.7362 22.9921L71.7367 22.9908L71.2668 22.82ZM70.2725 24.6222L69.8857 24.3053L69.8838 24.3076L70.2725 24.6222ZM68.8343 25.7408L68.6303 25.2843L68.6303 25.2843L68.8343 25.7408ZM66.8989 25.6136C66.5291 25.6136 66.2016 25.5832 65.9138 25.5257L65.7177 26.5063C66.081 26.5789 66.4756 26.6136 66.8989 26.6136V25.6136ZM65.9052 25.524C65.5907 25.4669 65.3952 25.4101 65.2909 25.3638L64.8847 26.2776C65.1 26.3733 65.3898 26.4467 65.7263 26.5079L65.9052 25.524ZM65.5675 25.9616L66.2067 23.7866L65.2473 23.5046L64.6081 25.6797L65.5675 25.9616ZM65.5974 24.1285C66.1174 24.268 66.6026 24.3345 67.0466 24.3137L66.9998 23.3148C66.6862 23.3295 66.3072 23.2836 65.8566 23.1627L65.5974 24.1285ZM67.0466 24.3137C67.5472 24.2903 67.9918 24.0987 68.3646 23.7564L67.6882 23.0199C67.4809 23.2102 67.2567 23.3028 66.9998 23.3148L67.0466 24.3137ZM68.3608 23.7598C68.7427 23.4161 69.0386 22.8953 69.2762 22.2577L68.3391 21.9085C68.1268 22.4783 67.9019 22.8275 67.6919 23.0165L68.3608 23.7598ZM69.2776 22.2536L69.6061 21.3481L68.6661 21.0071L68.3376 21.9126L69.2776 22.2536ZM69.6064 21.0077L64.617 7.19378L63.6765 7.53349L68.6658 21.3474L69.6064 21.0077ZM64.1468 7.86364H66.9877V6.86364H64.1468V7.86364ZM66.5123 7.51876L69.9658 18.1011L70.9165 17.7909L67.463 7.20852L66.5123 7.51876ZM70.4411 18.446H70.5832V17.446H70.4411V18.446ZM71.0585 18.1011L74.512 7.51876L73.5613 7.20852L70.1079 17.7909L71.0585 18.1011ZM74.0367 7.86364H76.8865V6.86364H74.0367V7.86364ZM76.4165 7.19279L70.7969 22.6491L71.7367 22.9908L77.3564 7.53449L76.4165 7.19279ZM70.7973 22.6478C70.5526 23.3153 70.2466 23.8647 69.8857 24.3053L70.6592 24.939C71.1032 24.3971 71.4601 23.7451 71.7362 22.9921L70.7973 22.6478ZM69.8838 24.3076C69.5284 24.7467 69.1112 25.0694 68.6303 25.2843L69.0382 26.1973C69.67 25.915 70.2116 25.492 70.6611 24.9368L69.8838 24.3076ZM68.6303 25.2843C68.1498 25.4989 67.5766 25.6136 66.8989 25.6136V26.6136C67.689 26.6136 68.406 26.4798 69.0382 26.1973L68.6303 25.2843ZM89.5107 7.59446L89.0139 7.65044L89.0639 8.09446H89.5107V7.59446ZM88.3389 5.64133L88.0574 6.05461L88.0599 6.05626L88.3389 5.64133ZM83.8112 5.2951L84.0063 5.75546L84.0105 5.75363L83.8112 5.2951ZM82.5416 6.25391L82.1395 5.95671L82.1388 5.95771L82.5416 6.25391ZM82.3996 8.74858L81.9787 9.01858L81.9824 9.02411L82.3996 8.74858ZM83.2075 9.53871L82.937 9.95939L82.9458 9.96479L83.2075 9.53871ZM84.2906 10.0625L84.1174 10.5316L84.1238 10.5339L84.2906 10.0625ZM85.4003 10.3999L85.5261 9.91593L85.5216 9.91479L85.4003 10.3999ZM87.1759 10.8615L87.05 11.3455L87.0569 11.3472L87.1759 10.8615ZM91.9166 13.8711L91.4777 14.1105L91.4796 14.1139L91.9166 13.8711ZM91.6059 18.7184L91.1899 18.441L91.1885 18.4432L91.6059 18.7184ZM89.3066 20.6094L89.098 20.1549L89.097 20.1554L89.3066 20.6094ZM82.1421 20.6538L82.3414 20.1952L82.3414 20.1952L82.1421 20.6538ZM79.8073 18.8161L79.3984 19.1038L79.3994 19.1052L79.8073 18.8161ZM78.8751 15.9751V15.4751H78.3473L78.3758 16.0021L78.8751 15.9751ZM81.6272 15.9751L82.1256 15.9347L82.0883 15.4751H81.6272V15.9751ZM82.2664 17.6175L81.8857 17.9417L81.8905 17.9472L82.2664 17.6175ZM83.7135 18.5852L83.5426 19.0552L83.5483 19.0572L83.7135 18.5852ZM87.7263 18.532L87.9128 18.9959L87.9151 18.9949L87.7263 18.532ZM89.1645 17.5021L89.5555 17.8138L89.5575 17.8113L89.1645 17.5021ZM89.2267 14.6257L88.8511 14.9559L88.8544 14.9595L89.2267 14.6257ZM87.9926 13.7734L87.7925 14.2316L87.7944 14.2325L87.9926 13.7734ZM86.2437 13.1786L86.1121 13.661L86.1162 13.6621L86.2437 13.1786ZM84.0953 12.5927L84.2268 12.1103L84.2267 12.1103L84.0953 12.5927ZM80.6329 10.8438L80.2966 11.2137L80.2978 11.2149L80.6329 10.8438ZM80.2156 5.04652L79.8113 4.75243L79.8113 4.75243L80.2156 5.04652ZM82.5239 3.22656L82.7272 3.68336L82.7295 3.68231L82.5239 3.22656ZM89.0669 3.21768L88.8582 3.67208L88.8593 3.67257L89.0669 3.21768ZM91.3041 5.00213L90.8981 5.29395L90.8991 5.29546L91.3041 5.00213ZM92.1563 7.59446V8.09446H92.6686L92.6562 7.58234L92.1563 7.59446ZM90.0076 7.53848C89.8969 6.55596 89.4293 5.77202 88.6179 5.22641L88.0599 6.05626C88.6216 6.43395 88.9352 6.95209 89.0139 7.65044L90.0076 7.53848ZM88.6203 5.22807C87.8319 4.69113 86.863 4.43999 85.7465 4.43999V5.43999C86.7134 5.43999 87.4727 5.65641 88.0574 6.0546L88.6203 5.22807ZM85.7465 4.43999C84.9492 4.43999 84.2331 4.56643 83.6118 4.83656L84.0105 5.75363C84.4782 5.55029 85.0524 5.43999 85.7465 5.43999V4.43999ZM83.616 4.83475C83.0029 5.09466 82.5028 5.46532 82.1395 5.95671L82.9437 6.5511C83.1842 6.22573 83.5304 5.95718 84.0063 5.75544L83.616 4.83475ZM82.1388 5.95771C81.7777 6.44881 81.5977 7.01201 81.5977 7.62997H82.5977C82.5977 7.21811 82.7137 6.86392 82.9445 6.5501L82.1388 5.95771ZM81.5977 7.62997C81.5977 8.14216 81.718 8.61213 81.9787 9.01856L82.8204 8.4786C82.6787 8.25766 82.5977 7.98189 82.5977 7.62997H81.5977ZM81.9824 9.02411C82.2297 9.39862 82.55 9.71047 82.9371 9.9593L83.4779 9.11812C83.202 8.94081 82.9838 8.7259 82.8168 8.47305L81.9824 9.02411ZM82.9458 9.96479C83.3122 10.1897 83.703 10.3785 84.1174 10.5315L84.4638 9.59345C84.1088 9.46238 83.7775 9.30197 83.4691 9.11262L82.9458 9.96479ZM84.1238 10.5339C84.5218 10.6747 84.9069 10.7919 85.279 10.8849L85.5216 9.91479C85.1835 9.83026 84.8288 9.72257 84.4574 9.59114L84.1238 10.5339ZM85.2745 10.8838L87.0501 11.3454L87.3017 10.3776L85.5261 9.91595L85.2745 10.8838ZM87.0569 11.3472C87.6124 11.4832 88.1852 11.6682 88.7754 11.9031L89.1452 10.974C88.5162 10.7236 87.8994 10.5239 87.2948 10.3759L87.0569 11.3472ZM88.7754 11.9031C89.3429 12.129 89.8685 12.4262 90.3531 12.7952L90.9589 11.9996C90.4018 11.5754 89.7969 11.2334 89.1452 10.974L88.7754 11.9031ZM90.3531 12.7952C90.8168 13.1483 91.1911 13.5851 91.4777 14.1105L92.3556 13.6317C92.003 12.9852 91.5368 12.4396 90.9589 11.9996L90.3531 12.7952ZM91.4796 14.1139C91.7557 14.611 91.9049 15.2249 91.9049 15.9751H92.9049C92.9049 15.0918 92.7286 14.3031 92.3537 13.6283L91.4796 14.1139ZM91.9049 15.9751C91.9049 16.9138 91.6638 17.7302 91.1899 18.441L92.0219 18.9957C92.6134 18.1086 92.9049 17.0962 92.9049 15.9751H91.9049ZM91.1885 18.4432C90.7209 19.1525 90.0327 19.7261 89.098 20.1549L89.5151 21.0638C90.5927 20.5694 91.4375 19.8823 92.0234 18.9936L91.1885 18.4432ZM89.097 20.1554C88.1786 20.5793 87.0438 20.8018 85.6755 20.8018V21.8018C87.1482 21.8018 88.434 21.5628 89.5161 21.0634L89.097 20.1554ZM85.6755 20.8018C84.3659 20.8018 83.259 20.5939 82.3414 20.1952L81.9429 21.1123C83.0139 21.5777 84.2626 21.8018 85.6755 21.8018V20.8018ZM82.3414 20.1952C81.4209 19.7952 80.7187 19.2372 80.2152 18.5269L79.3994 19.1052C80.0203 19.9811 80.8748 20.6482 81.9429 21.1123L82.3414 20.1952ZM80.2162 18.5283C79.7143 17.8151 79.4291 16.9612 79.3744 15.9482L78.3758 16.0021C78.4394 17.1789 78.7757 18.219 79.3984 19.1038L80.2162 18.5283ZM78.8751 16.4751H81.6272V15.4751H78.8751V16.4751ZM81.1289 16.0155C81.1893 16.7612 81.4352 17.4125 81.8857 17.9417L82.6471 17.2934C82.3519 16.9466 82.1717 16.503 82.1256 15.9347L81.1289 16.0155ZM81.8905 17.9472C82.3294 18.4478 82.8845 18.8158 83.5426 19.0551L83.8844 18.1153C83.3706 17.9285 82.9611 17.6514 82.6424 17.2879L81.8905 17.9472ZM83.5483 19.0572C84.1994 19.285 84.9041 19.396 85.6578 19.396V18.396C85.0028 18.396 84.4113 18.2997 83.8787 18.1133L83.5483 19.0572ZM85.6578 19.396C86.485 19.396 87.2396 19.2665 87.9128 18.9959L87.5398 18.068C87.0056 18.2828 86.3812 18.396 85.6578 18.396V19.396ZM87.9151 18.9949C88.59 18.7198 89.1443 18.3296 89.5555 17.8138L88.7736 17.1904C88.4864 17.5506 88.0819 17.847 87.5375 18.069L87.9151 18.9949ZM89.5575 17.8113C89.9795 17.2748 90.1883 16.6467 90.1883 15.9485H89.1883C89.1883 16.434 89.0479 16.8417 88.7715 17.193L89.5575 17.8113ZM90.1883 15.9485C90.1883 15.3087 90.0025 14.7421 89.5989 14.2919L88.8544 14.9595C89.0663 15.1959 89.1883 15.5111 89.1883 15.9485H90.1883ZM89.6021 14.2955C89.2411 13.885 88.7636 13.5617 88.1908 13.3144L87.7944 14.2325C88.2633 14.435 88.6085 14.6799 88.8512 14.9559L89.6021 14.2955ZM88.1928 13.3152C87.6502 13.0783 87.0423 12.8721 86.3712 12.6951L86.1162 13.6621C86.7471 13.8284 87.3052 14.0188 87.7925 14.2316L88.1928 13.3152ZM86.3753 12.6962L84.2268 12.1103L83.9637 13.0751L86.1121 13.661L86.3753 12.6962ZM84.2267 12.1103C82.8235 11.7281 81.7467 11.1756 80.968 10.4726L80.2978 11.2149C81.2237 12.0507 82.4551 12.6642 83.9639 13.0751L84.2267 12.1103ZM80.9692 10.4738C80.239 9.80989 79.8634 8.93231 79.8634 7.78977H78.8634C78.8634 9.18038 79.3341 10.3388 80.2966 11.2137L80.9692 10.4738ZM79.8634 7.78977C79.8634 6.83844 80.1193 6.02908 80.62 5.3406L79.8113 4.75243C79.1756 5.62646 78.8634 6.64594 78.8634 7.78977H79.8634ZM80.62 5.3406C81.1316 4.63722 81.8285 4.0834 82.7272 3.68335L82.3206 2.76977C81.278 3.23383 80.4361 3.89332 79.8113 4.75243L80.62 5.3406ZM82.7295 3.68231C83.6268 3.27745 84.6501 3.0696 85.8087 3.0696V2.0696C84.5288 2.0696 83.3622 2.29973 82.3182 2.77081L82.7295 3.68231ZM85.8087 3.0696C86.9812 3.0696 87.9938 3.27521 88.8582 3.67208L89.2755 2.76329C88.2578 2.29605 87.0983 2.0696 85.8087 2.0696V3.0696ZM88.8593 3.67257C89.7364 4.07276 90.4101 4.615 90.8981 5.29395L91.7101 4.71031C91.1091 3.87411 90.2912 3.22672 89.2744 2.76279L88.8593 3.67257ZM90.8991 5.29546C91.3811 5.96071 91.6351 6.72558 91.6565 7.60658L92.6562 7.58234C92.6302 6.51021 92.3161 5.54686 91.709 4.7088L90.8991 5.29546ZM92.1563 7.09446H89.5107V8.09446H92.1563V7.09446ZM101.835 7.36364H102.335V6.86364H101.835V7.36364ZM101.835 9.49432V9.99432H102.335V9.49432H101.835ZM94.3869 9.49432H93.8869V9.99432H94.3869V9.49432ZM94.3869 7.36364V6.86364H93.8869V7.36364H94.3869ZM96.3844 4.09659V3.59659H95.8844V4.09659H96.3844ZM99.0389 4.09659H99.5389V3.59659H99.0389V4.09659ZM99.2697 18.1591L98.8392 18.4135L98.8418 18.4178L99.2697 18.1591ZM99.8645 18.6829L99.6828 19.1487L99.6895 19.1513L99.6964 19.1538L99.8645 18.6829ZM101.232 18.7717L101.323 19.2633L101.323 19.2633L101.232 18.7717ZM101.605 18.7006L102.093 18.5938L101.988 18.114L101.507 18.2103L101.605 18.7006ZM102.084 20.8935L102.263 21.3601L102.664 21.206L102.572 20.7867L102.084 20.8935ZM101.427 21.071L101.325 20.5814L101.315 20.5837L101.427 21.071ZM100.362 21.1776L100.355 20.6776L100.353 20.6776L100.362 21.1776ZM98.4086 20.8047L98.2105 21.2638L98.2105 21.2638L98.4086 20.8047ZM96.9437 19.5973L96.5312 19.8798L96.5312 19.8798L96.9437 19.5973ZM101.335 7.36364V9.49432H102.335V7.36364H101.335ZM101.835 8.99432H94.3869V9.99432H101.835V8.99432ZM94.8869 9.49432V7.36364H93.8869V9.49432H94.8869ZM94.3869 7.86364H101.835V6.86364H94.3869V7.86364ZM96.3844 4.59659H99.0389V3.59659H96.3844V4.59659ZM98.5389 4.09659V16.9961H99.5389V4.09659H98.5389ZM98.5389 16.9961C98.5389 17.5452 98.6182 18.0393 98.8392 18.4135L99.7002 17.9047C99.6135 17.758 99.5389 17.4769 99.5389 16.9961H98.5389ZM98.8418 18.4178C99.0443 18.7526 99.3232 19.0084 99.6828 19.1487L100.046 18.2171C99.9205 18.168 99.8029 18.0746 99.6976 17.9004L98.8418 18.4178ZM99.6964 19.1538C100.004 19.2636 100.331 19.3161 100.672 19.3161V18.3161C100.434 18.3161 100.222 18.2797 100.033 18.212L99.6964 19.1538ZM100.672 19.3161C100.907 19.3161 101.125 19.2999 101.323 19.2633L101.141 18.28C101.018 18.3026 100.864 18.3161 100.672 18.3161V19.3161ZM101.323 19.2633C101.483 19.2336 101.61 19.2094 101.703 19.1909L101.507 18.2103C101.421 18.2274 101.3 18.2506 101.141 18.28L101.323 19.2633ZM101.116 18.8074L101.596 21.0003L102.572 20.7867L102.093 18.5938L101.116 18.8074ZM101.904 20.4268C101.788 20.4717 101.599 20.5244 101.325 20.5815L101.529 21.5605C101.823 21.4993 102.072 21.4336 102.263 21.3601L101.904 20.4268ZM101.315 20.5837C101.077 20.6382 100.76 20.672 100.355 20.6776L100.369 21.6775C100.815 21.6713 101.208 21.6341 101.539 21.5584L101.315 20.5837ZM100.353 20.6776C99.7213 20.6883 99.1411 20.5762 98.6066 20.3456L98.2105 21.2638C98.8834 21.5541 99.6053 21.6904 100.37 21.6775L100.353 20.6776ZM98.6066 20.3456C98.09 20.1227 97.676 19.7817 97.3563 19.3148L96.5312 19.8798C96.9572 20.502 97.5197 20.9658 98.2105 21.2638L98.6066 20.3456ZM97.3563 19.3148C97.053 18.872 96.8844 18.2934 96.8844 17.5465H95.8844C95.8844 18.445 96.0887 19.2336 96.5312 19.8798L97.3563 19.3148ZM96.8844 17.5465V4.09659H95.8844V17.5465H96.8844ZM113.41 15.3448L112.91 15.3448L112.91 15.3486L113.41 15.3448ZM113.41 7.36364V6.86364H112.91V7.36364H113.41ZM116.073 7.36364H116.573V6.86364H116.073V7.36364ZM116.073 21V21.5H116.573V21H116.073ZM113.463 21H112.963V21.5H113.463V21ZM113.463 18.6385H113.963V18.1385H113.463V18.6385ZM113.321 18.6385V18.1385H112.992L112.862 18.4406L113.321 18.6385ZM111.812 20.4585L112.098 20.8684L112.099 20.8679L111.812 20.4585ZM106.92 20.6005L106.668 21.0323L106.673 21.0349L106.92 20.6005ZM105.34 18.8693L104.892 19.0915L104.893 19.0943L105.34 18.8693ZM104.772 7.36364V6.86364H104.272V7.36364H104.772ZM107.426 7.36364H107.926V6.86364H107.426V7.36364ZM108.199 17.9371L108.564 17.5956L108.564 17.5956L108.199 17.9371ZM111.688 18.3899L111.464 17.9427L111.462 17.9438L111.688 18.3899ZM112.922 17.2624L112.504 16.9873L112.502 16.9908L112.922 17.2624ZM113.91 15.3448V7.36364H112.91V15.3448H113.91ZM113.41 7.86364H116.073V6.86364H113.41V7.86364ZM115.573 7.36364V21H116.573V7.36364H115.573ZM116.073 20.5H113.463V21.5H116.073V20.5ZM113.963 21V18.6385H112.963V21H113.963ZM113.463 18.1385H113.321V19.1385H113.463V18.1385ZM112.862 18.4406C112.587 19.0778 112.147 19.6132 111.525 20.049L112.099 20.8679C112.862 20.3331 113.427 19.6552 113.78 18.8364L112.862 18.4406ZM111.526 20.0485C110.94 20.4573 110.191 20.6776 109.246 20.6776V21.6776C110.349 21.6776 111.31 21.4184 112.098 20.8684L111.526 20.0485ZM109.246 20.6776C108.446 20.6776 107.758 20.5026 107.168 20.1661L106.673 21.0349C107.432 21.4679 108.295 21.6776 109.246 21.6776V20.6776ZM107.172 20.1687C106.596 19.8318 106.132 19.3309 105.786 18.6443L104.893 19.0943C105.317 19.9348 105.907 20.5879 106.668 21.0322L107.172 20.1687ZM105.788 18.6471C105.452 17.9711 105.272 17.1083 105.272 16.0373H104.272C104.272 17.2153 104.47 18.2405 104.892 19.0915L105.788 18.6471ZM105.272 16.0373V7.36364H104.272V16.0373H105.272ZM104.772 7.86364H107.426V6.86364H104.772V7.86364ZM106.926 7.36364V15.7177H107.926V7.36364H106.926ZM106.926 15.7177C106.926 16.7427 107.213 17.6153 107.833 18.2787L108.564 17.5956C108.155 17.1582 107.926 16.5511 107.926 15.7177H106.926ZM107.833 18.2787C108.452 18.9401 109.258 19.2628 110.205 19.2628V18.2628C109.507 18.2628 108.975 18.0351 108.564 17.5956L107.833 18.2787ZM110.205 19.2628C110.789 19.2628 111.36 19.1162 111.913 18.836L111.462 17.9438C111.033 18.1608 110.616 18.2628 110.205 18.2628V19.2628ZM111.911 18.8371C112.494 18.5455 112.971 18.1061 113.341 17.5341L112.502 16.9908C112.221 17.4249 111.875 17.7372 111.464 17.9427L111.911 18.8371ZM113.339 17.5375C113.739 16.9309 113.916 16.1872 113.91 15.341L112.91 15.3486C112.915 16.0531 112.767 16.5878 112.504 16.9873L113.339 17.5375ZM121.797 20.4229L121.521 20.8399L121.525 20.842L121.797 20.4229ZM119.773 17.9993L119.319 18.2085L119.32 18.2116L119.773 17.9993ZM119.782 10.4265L119.33 10.2121L119.329 10.2142L119.782 10.4265ZM121.824 8.0206L122.095 8.441L122.095 8.441L121.824 8.0206ZM126.804 7.61222L126.563 8.05005L126.569 8.05325L126.804 7.61222ZM128.012 8.58878L127.614 8.89181L127.617 8.89575L128.012 8.58878ZM128.686 9.57422L128.251 9.81935L128.394 10.0742H128.686V9.57422ZM128.846 9.57422V10.0742H129.346V9.57422H128.846ZM128.846 2.81818V2.31818H128.346V2.81818H128.846ZM131.501 2.81818H132.001V2.31818H131.501V2.81818ZM131.501 21V21.5H132.001V21H131.501ZM128.908 21H128.408V21.5H128.908V21ZM128.908 18.8782H129.408V18.3782H128.908V18.8782ZM128.686 18.8782V18.3782H128.391L128.249 18.6369L128.686 18.8782ZM127.994 19.8725L127.605 19.5579L127.602 19.5617L127.994 19.8725ZM127.266 18.3988L127.57 18.7961L127.57 18.7956L127.266 18.3988ZM128.473 16.7031L128.007 16.5234L128.006 16.5267L128.473 16.7031ZM128.482 11.696L128.015 11.875L128.015 11.875L128.482 11.696ZM127.284 10.0359L126.983 10.4353L126.983 10.4353L127.284 10.0359ZM123.333 10.0625L123.64 10.4572L123.64 10.4572L123.333 10.0625ZM122.126 11.7582L121.658 11.5805L121.657 11.5839L122.126 11.7582ZM122.135 16.641L122.603 16.4658L122.603 16.4658L122.135 16.641ZM123.342 18.3722L123.03 18.7626L123.034 18.7664L123.342 18.3722ZM124.745 20.7663C123.734 20.7663 122.847 20.5097 122.07 20.0038L121.525 20.842C122.475 21.4607 123.554 21.7663 124.745 21.7663V20.7663ZM122.073 20.006C121.301 19.4946 120.683 18.762 120.226 17.787L119.32 18.2116C119.846 19.3317 120.577 20.2149 121.521 20.8398L122.073 20.006ZM120.227 17.7901C119.779 16.8174 119.545 15.6288 119.545 14.2085H118.545C118.545 15.7355 118.796 17.0742 119.319 18.2085L120.227 17.7901ZM119.545 14.2085C119.545 12.7887 119.782 11.6043 120.235 10.6388L119.329 10.2142C118.8 11.3438 118.545 12.6808 118.545 14.2085H119.545ZM120.234 10.6409C120.696 9.6664 121.319 8.94063 122.095 8.441L121.553 7.60019C120.601 8.21325 119.862 9.09142 119.33 10.2121L120.234 10.6409ZM122.095 8.441C122.873 7.94007 123.757 7.68608 124.762 7.68608V6.68608C123.578 6.68608 122.503 6.98844 121.553 7.60019L122.095 8.441ZM124.762 7.68608C125.559 7.68608 126.147 7.82074 126.563 8.05L127.046 7.17443C126.432 6.83551 125.658 6.68608 124.762 6.68608V7.68608ZM126.569 8.05325C127.042 8.30611 127.383 8.58885 127.614 8.8918L128.409 8.28576C128.072 7.84297 127.608 7.47467 127.04 7.17118L126.569 8.05325ZM127.617 8.89575C127.898 9.25692 128.107 9.56409 128.251 9.81935L129.122 9.32909C128.946 9.01617 128.706 8.66638 128.406 8.28181L127.617 8.89575ZM128.686 10.0742H128.846V9.07422H128.686V10.0742ZM129.346 9.57422V2.81818H128.346V9.57422H129.346ZM128.846 3.31818H131.501V2.31818H128.846V3.31818ZM131.001 2.81818V21H132.001V2.81818H131.001ZM131.501 20.5H128.908V21.5H131.501V20.5ZM129.408 21V18.8782H128.408V21H129.408ZM128.908 18.3782H128.686V19.3782H128.908V18.3782ZM128.249 18.6369C128.108 18.8924 127.896 19.1987 127.605 19.5579L128.383 20.1871C128.696 19.8005 128.946 19.444 129.124 19.1195L128.249 18.6369ZM127.602 19.5617C127.358 19.8697 127.008 20.1546 126.533 20.408L127.004 21.2901C127.572 20.9872 128.038 20.6211 128.386 20.1833L127.602 19.5617ZM126.533 20.408C126.108 20.6351 125.522 20.7663 124.745 20.7663V21.7663C125.624 21.7663 126.388 21.6194 127.004 21.2901L126.533 20.408ZM125.331 19.5025C126.186 19.5025 126.943 19.275 127.57 18.7961L126.962 18.0015C126.536 18.3275 126.002 18.5025 125.331 18.5025V19.5025ZM127.57 18.7956C128.187 18.3224 128.641 17.6755 128.941 16.8795L128.006 16.5267C127.761 17.1748 127.41 17.6585 126.962 18.002L127.57 18.7956ZM128.94 16.8829C129.245 16.0916 129.391 15.1879 129.391 14.1818H128.391C128.391 15.0933 128.258 15.8706 128.007 16.5234L128.94 16.8829ZM129.391 14.1818C129.391 13.1881 129.248 12.2965 128.949 11.5171L128.015 11.875C128.261 12.516 128.391 13.2816 128.391 14.1818H129.391ZM128.949 11.5171C128.649 10.7329 128.197 10.0976 127.584 9.63641L126.983 10.4353C127.424 10.7672 127.771 11.2387 128.015 11.875L128.949 11.5171ZM127.584 9.63641C126.956 9.16365 126.195 8.94105 125.331 8.94105V9.94105C126.017 9.94105 126.558 10.115 126.983 10.4353L127.584 9.63641ZM125.331 8.94105C124.442 8.94105 123.662 9.17328 123.026 9.66782L123.64 10.4572C124.07 10.1231 124.622 9.94105 125.331 9.94105V8.94105ZM123.026 9.66782C122.412 10.1457 121.959 10.7905 121.658 11.5805L122.593 11.9358C122.837 11.2935 123.189 10.8079 123.64 10.4572L123.026 9.66782ZM121.657 11.5839C121.367 12.3647 121.226 13.233 121.226 14.1818H122.226C122.226 13.3314 122.352 12.5839 122.594 11.9325L121.657 11.5839ZM121.226 14.1818C121.226 15.143 121.37 16.0234 121.666 16.8161L122.603 16.4658C122.355 15.8026 122.226 15.0436 122.226 14.1818H121.226ZM121.666 16.8161C121.966 17.6166 122.417 18.2726 123.03 18.7626L123.654 17.9817C123.202 17.6195 122.848 17.1213 122.603 16.4658L121.666 16.8161ZM123.034 18.7664C123.674 19.2653 124.45 19.5025 125.331 19.5025V18.5025C124.637 18.5025 124.087 18.3194 123.65 17.9779L123.034 18.7664ZM135.289 21H134.789V21.5H135.289V21ZM135.289 7.36364V6.86364H134.789V7.36364H135.289ZM137.944 7.36364H138.444V6.86364H137.944V7.36364ZM137.944 21V21.5H138.444V21H137.944ZM135.44 4.79794L135.093 5.15804L135.1 5.16434L135.44 4.79794ZM135.44 2.56072L135.784 2.92405L135.784 2.92387L135.44 2.56072ZM137.811 2.56072L137.464 2.92082L137.47 2.92712L137.811 2.56072ZM137.811 4.79794L138.154 5.16126L138.154 5.16109L137.811 4.79794ZM135.789 21V7.36364H134.789V21H135.789ZM135.289 7.86364H137.944V6.86364H135.289V7.86364ZM137.444 7.36364V21H138.444V7.36364H137.444ZM137.944 20.5H135.289V21.5H137.944V20.5ZM136.63 4.75959C136.292 4.75959 136.017 4.65148 135.78 4.43154L135.1 5.16434C135.526 5.55993 136.045 5.75959 136.63 5.75959V4.75959ZM135.787 4.4379C135.554 4.21357 135.452 3.96868 135.452 3.67933H134.452C134.452 4.2541 134.675 4.75494 135.093 5.15798L135.787 4.4379ZM135.452 3.67933C135.452 3.38234 135.556 3.13981 135.784 2.92405L135.097 2.1974C134.674 2.59717 134.452 3.10038 134.452 3.67933H135.452ZM135.784 2.92387C136.021 2.6992 136.294 2.5902 136.63 2.5902V1.5902C136.042 1.5902 135.522 1.79488 135.097 2.19758L135.784 2.92387ZM136.63 2.5902C136.965 2.5902 137.234 2.69897 137.464 2.92076L138.158 2.20068C137.737 1.79511 137.218 1.5902 136.63 1.5902V2.5902ZM137.47 2.92712C137.704 3.14378 137.808 3.38545 137.808 3.67933H138.808C138.808 3.09726 138.58 2.5932 138.151 2.19433L137.47 2.92712ZM137.808 3.67933C137.808 3.96558 137.705 4.20959 137.467 4.43479L138.154 5.16109C138.579 4.75892 138.808 4.25719 138.808 3.67933H137.808ZM137.467 4.43462C137.238 4.65168 136.968 4.75959 136.63 4.75959V5.75959C137.215 5.75959 137.733 5.55972 138.154 5.16126L137.467 4.43462ZM141.692 17.9371L142.14 17.7135L142.14 17.7135L141.692 17.9371ZM143.912 8.06499L144.174 8.49091L144.174 8.49091L143.912 8.06499ZM150.606 8.06499L150.344 8.49091L150.344 8.49091L150.606 8.06499ZM152.825 17.9371L152.378 17.7135L152.378 17.7135L152.825 17.9371ZM150.606 20.3963L150.868 20.8222L150.868 20.8222L150.606 20.3963ZM149.327 18.3899L149.014 18.0003L149.014 18.0003L149.327 18.3899ZM150.535 16.641L150.065 16.4692L150.064 16.4726L150.535 16.641ZM150.535 11.8381L150.064 12.0053L150.065 12.0099L150.535 11.8381ZM149.327 10.0714L149.011 10.4589L149.011 10.4589L149.327 10.0714ZM145.19 10.0714L144.876 9.68217L144.874 9.68384L145.19 10.0714ZM143.974 11.8381L143.504 11.6675L143.503 11.6697L143.974 11.8381ZM143.974 16.641L143.503 16.8094L143.505 16.8128L143.974 16.641ZM145.19 18.3899L144.877 18.7795L144.879 18.7812L145.19 18.3899ZM147.259 20.7752C146.059 20.7752 145.037 20.5013 144.174 19.9704L143.65 20.8222C144.692 21.4632 145.901 21.7752 147.259 21.7752V20.7752ZM144.174 19.9704C143.305 19.4359 142.627 18.6883 142.14 17.7135L141.245 18.1608C141.811 19.293 142.613 20.1848 143.65 20.8222L144.174 19.9704ZM142.14 17.7135C141.654 16.7418 141.402 15.59 141.402 14.244H140.402C140.402 15.7151 140.678 17.0255 141.245 18.1608L142.14 17.7135ZM141.402 14.244C141.402 12.8917 141.654 11.7336 142.14 10.7556L141.245 10.3104C140.678 11.4513 140.402 12.7671 140.402 14.244H141.402ZM142.14 10.7556C142.628 9.77498 143.305 9.02493 144.174 8.49091L143.65 7.63907C142.613 8.27692 141.811 9.17222 141.245 10.3104L142.14 10.7556ZM144.174 8.49091C145.037 7.96002 146.059 7.68608 147.259 7.68608V6.68608C145.901 6.68608 144.692 6.99808 143.65 7.63907L144.174 8.49091ZM147.259 7.68608C148.458 7.68608 149.481 7.96002 150.344 8.49091L150.868 7.63907C149.825 6.99808 148.616 6.68608 147.259 6.68608V7.68608ZM150.344 8.49091C151.212 9.02493 151.89 9.77498 152.378 10.7556L153.273 10.3104C152.707 9.17222 151.905 8.27692 150.868 7.63907L150.344 8.49091ZM152.378 10.7556C152.864 11.7336 153.115 12.8917 153.115 14.244H154.115C154.115 12.7671 153.84 11.4513 153.273 10.3104L152.378 10.7556ZM153.115 14.244C153.115 15.59 152.864 16.7418 152.378 17.7135L153.272 18.1608C153.84 17.0255 154.115 15.7151 154.115 14.244H153.115ZM152.378 17.7135C151.891 18.6883 151.213 19.4359 150.344 19.9704L150.868 20.8222C151.904 20.1848 152.706 19.293 153.272 18.1608L152.378 17.7135ZM150.344 19.9704C149.481 20.5013 148.458 20.7752 147.259 20.7752V21.7752C148.616 21.7752 149.825 21.4632 150.868 20.8222L150.344 19.9704ZM147.268 19.5469C148.188 19.5469 148.992 19.3016 149.641 18.7795L149.014 18.0003C148.574 18.3541 148.004 18.5469 147.268 18.5469V19.5469ZM149.641 18.7795C150.265 18.2777 150.718 17.6147 151.006 16.8094L150.064 16.4726C149.831 17.1232 149.479 17.6262 149.014 18.0003L149.641 18.7795ZM151.004 16.8128C151.293 16.0231 151.434 15.1621 151.434 14.2351H150.434C150.434 15.06 150.309 15.8029 150.065 16.4692L151.004 16.8128ZM151.434 14.2351C151.434 13.3136 151.293 12.4556 151.004 11.6663L150.065 12.0099C150.309 12.6765 150.434 13.4165 150.434 14.2351H151.434ZM151.006 11.6709C150.718 10.8603 150.266 10.1917 149.643 9.68384L149.011 10.4589C149.478 10.8388 149.83 11.348 150.064 12.0053L151.006 11.6709ZM149.643 9.68384C148.994 9.15465 148.19 8.90554 147.268 8.90554V9.90554C148.003 9.90554 148.572 10.1003 149.011 10.4589L149.643 9.68384ZM147.268 8.90554C146.34 8.90554 145.531 9.15418 144.876 9.68217L145.504 10.4606C145.95 10.1008 146.526 9.90554 147.268 9.90554V8.90554ZM144.874 9.68384C144.252 10.191 143.798 10.8584 143.504 11.6675L144.444 12.0086C144.683 11.3499 145.039 10.8395 145.506 10.4589L144.874 9.68384ZM143.503 11.6697C143.221 12.458 143.083 13.3148 143.083 14.2351H144.083C144.083 13.4153 144.206 12.6741 144.445 12.0065L143.503 11.6697ZM143.083 14.2351C143.083 15.1609 143.221 16.0207 143.503 16.8094L144.445 16.4726C144.206 15.8053 144.083 15.0612 144.083 14.2351H143.083ZM143.505 16.8128C143.799 17.6166 144.254 18.2784 144.877 18.7795L145.504 18.0003C145.038 17.6255 144.682 17.1213 144.444 16.4692L143.505 16.8128ZM144.879 18.7812C145.534 19.3021 146.342 19.5469 147.268 19.5469V18.5469C146.524 18.5469 145.948 18.3537 145.502 17.9987L144.879 18.7812Z" fill="white"/>
</g>
<defs>
<clipPath id="clip0_1_19">
<rect width="166" height="27" fill="white"/>
</clipPath>
</defs>
</svg>
